<svg width="1572" height="248" viewBox="0 0 1572 248" fill="none" xmlns="http://www.w3.org/2000/svg">
<path d="M514.316 23.2542C525.239 23.2064 536.128 24.4659 546.748 27.0063C556.634 29.3053 565.998 33.4299 574.355 39.1647C582.384 44.7437 588.953 52.1548 593.512 60.7779C598.507 70.5761 600.946 81.4667 600.604 92.4479H554.743C554.597 86.9086 553.205 81.4717 550.67 76.5375C548.522 72.4948 545.35 69.0802 541.468 66.6315C537.452 64.0983 533.004 62.3179 528.344 61.3784C523.029 60.3329 517.621 59.8298 512.203 59.8772C508.401 59.8981 504.611 60.3007 500.89 61.0781C497.191 61.8342 493.663 63.2592 490.48 65.2813C487.484 67.2518 484.919 69.8041 482.938 72.7854C480.845 76.1621 479.794 80.0775 479.92 84.0431C479.623 87.6728 480.355 91.3128 482.033 94.5495C484.467 97.782 487.758 100.276 491.537 101.753C497.875 104.5 504.435 106.711 511.147 108.358C519.519 110.572 530.419 113.348 543.883 116.763C547.918 117.551 553.5 119.014 560.627 121.116C568.181 123.394 575.351 126.784 581.897 131.173C589.111 135.998 595.269 142.228 600 149.485C605.398 158.382 608.023 168.672 607.542 179.053C607.637 188.464 605.682 197.784 601.811 206.371C597.97 214.842 592.181 222.297 584.914 228.135C576.576 234.648 567.047 239.49 556.856 242.393C544.26 246 531.193 247.721 518.087 247.497C506.433 247.516 494.823 246.053 483.542 243.145C472.973 240.514 462.993 235.932 454.124 229.636C445.578 223.411 438.606 215.292 433.76 205.921C428.494 195.247 426.005 183.429 426.519 171.549H472.378C472.142 177.865 473.435 184.145 476.149 189.86C478.711 194.692 482.381 198.858 486.86 202.018C491.417 205.225 496.532 207.566 501.945 208.922C507.859 210.431 513.942 211.189 520.047 211.174C524.593 211.156 529.131 210.804 533.624 210.123C538.326 209.447 542.902 208.082 547.201 206.071C551.314 204.166 554.928 201.34 557.762 197.815C560.66 194.03 562.153 189.363 561.985 184.607C562.093 181.998 561.652 179.395 560.691 176.966C559.73 174.537 558.269 172.333 556.403 170.498C552.169 166.567 547.196 163.507 541.77 161.492C535.097 158.891 528.24 156.783 521.255 155.188C513.712 153.386 505.867 151.436 498.023 149.185C490.036 147.15 482.178 144.643 474.491 141.679C467.137 138.942 460.224 135.15 453.973 130.423C447.929 125.819 442.942 119.985 439.342 113.311C435.434 105.541 433.516 96.93 433.76 88.2447C433.49 78.1811 435.938 68.2297 440.849 59.4277C445.504 51.4288 451.832 44.5183 459.405 39.1647C467.255 33.6034 476.042 29.4851 485.351 27.0063C494.797 24.4906 504.537 23.2292 514.316 23.2542Z" fill="white"/>
<path fill-rule="evenodd" clip-rule="evenodd" d="M688.972 83.2918C696.945 83.3065 704.908 83.8592 712.806 84.9438C720.444 85.926 727.877 88.1044 734.831 91.3979C741.286 94.445 746.884 99.0334 751.124 104.756C755.606 111.391 757.826 119.283 757.459 127.27V208.172C757.448 214.894 757.852 221.611 758.666 228.284H758.515C758.896 233.328 760.335 238.237 762.739 242.693H719.444C718.63 240.236 717.974 237.73 717.483 235.189C716.984 232.71 716.632 230.204 716.428 227.684C709.786 234.569 701.473 239.635 692.29 242.393C683.101 245.193 673.542 246.61 663.931 246.596C656.9 246.649 649.894 245.74 643.112 243.894C636.974 242.239 631.23 239.382 626.217 235.49C621.349 231.649 617.471 226.709 614.903 221.08C612.043 214.554 610.653 207.484 610.83 200.366C610.534 192.837 612.143 185.354 615.507 178.604C618.392 173.169 622.527 168.488 627.575 164.944C632.727 161.488 638.444 158.949 644.47 157.44C650.78 155.756 657.176 154.402 663.629 153.386C670.078 152.373 676.413 151.586 682.485 150.986C688.075 150.491 693.622 149.587 699.08 148.284C703.187 147.365 707.047 145.573 710.393 143.031C711.795 141.785 712.87 140.217 713.527 138.465C714.184 136.713 714.403 134.829 714.164 132.974C714.348 129.19 713.571 125.421 711.902 122.016C710.495 119.415 708.41 117.238 705.867 115.713C703.179 114.148 700.205 113.127 697.118 112.711C693.571 112.201 689.99 111.951 686.407 111.961C679.541 111.572 672.728 113.357 666.947 117.063C664.333 119.295 662.227 122.056 660.77 125.162C659.313 128.268 658.539 131.648 658.5 135.075H615.658C615.899 126.25 618.502 117.649 623.2 110.16C627.573 103.752 633.35 98.4149 640.095 94.5495C647.245 90.4138 655.05 87.5204 663.176 85.9938C671.665 84.2553 680.305 83.35 688.972 83.2918ZM714.542 166.745C712.566 168.451 710.253 169.729 707.753 170.498C704.889 171.438 701.966 172.191 699.004 172.75C695.873 173.35 692.629 173.837 689.198 174.25C685.766 174.662 682.372 175.15 678.941 175.751C675.724 176.348 672.549 177.15 669.437 178.153C666.52 179.058 663.769 180.427 661.291 182.205C658.97 183.915 657.062 186.12 655.709 188.659C654.196 191.738 653.47 195.142 653.596 198.566C653.494 201.892 654.22 205.192 655.709 208.172C657.039 210.691 659.018 212.815 661.442 214.326C664.035 215.892 666.9 216.961 669.889 217.478C673.172 218.085 676.505 218.387 679.845 218.378C686.643 218.765 693.42 217.312 699.456 214.175C703.688 211.757 707.222 208.294 709.715 204.12C711.899 200.438 713.309 196.352 713.862 192.112C714.297 188.927 714.549 185.719 714.617 182.505L714.542 166.745Z" fill="white"/>
<path fill-rule="evenodd" clip-rule="evenodd" d="M901.662 83.4427C913.679 83.1158 925.598 85.6902 936.396 90.9468C945.978 95.8448 954.292 102.883 960.684 111.51C967.107 120.354 971.767 130.34 974.412 140.929C977.234 152.207 978.251 163.857 977.429 175.45H864.891C865.457 189.259 869.002 199.279 875.413 205.47C881.825 211.661 891.14 214.626 903.171 214.626C911.108 214.847 918.915 212.591 925.497 208.172C930.723 205.035 934.714 200.215 936.811 194.513H1014.8C1014.66 197.896 1015.67 201.229 1017.67 203.969C1019.53 207.204 1022.11 209.976 1025.21 212.075C1028.37 214.235 1031.9 215.811 1035.62 216.728C1039.61 217.743 1043.72 218.248 1047.84 218.229C1051.04 218.216 1054.22 217.862 1057.34 217.177C1060.51 216.527 1063.56 215.414 1066.39 213.875C1069.08 212.405 1071.4 210.354 1073.18 207.872C1075.07 205.086 1076.03 201.774 1075.9 198.415C1075.9 191.999 1071.6 187.158 1063.08 184.006C1051.41 179.953 1039.46 176.743 1027.32 174.4C1021.16 173.125 1015.08 171.523 1009.07 169.597C1003.46 167.86 998.122 165.334 993.23 162.093C988.62 159.089 984.752 155.087 981.916 150.385C978.952 145.123 977.491 139.154 977.692 133.125C977.339 124.537 979.375 116.018 983.576 108.508C987.393 102.275 992.739 97.1108 999.113 93.4995C1005.85 89.6736 1013.2 87.0322 1020.84 85.6936C1028.99 84.1818 1037.28 83.4286 1045.58 83.4427C1053.83 83.4184 1062.07 84.2233 1070.17 85.8445C1077.67 87.3001 1084.87 90.042 1091.44 93.9491C1097.67 97.7373 1102.98 102.866 1106.97 108.959C1111.42 117.047 1114 126.02 1114.52 135.225H1073.79C1073.18 127.045 1070.01 119.052 1064.43 116.163C1058.23 113.141 1051.39 111.649 1044.48 111.81C1041.86 111.821 1039.24 111.972 1036.64 112.261C1034.04 112.525 1031.5 113.183 1029.1 114.212C1026.81 115.173 1024.79 116.665 1023.21 118.565C1021.54 120.705 1020.69 123.364 1020.8 126.07C1020.75 127.838 1021.1 129.594 1021.83 131.206C1022.57 132.818 1023.66 134.245 1025.02 135.376C1028.28 138.021 1032.02 140.009 1036.04 141.229C1041.13 142.881 1046.32 144.234 1051.57 145.282C1057.38 146.482 1063.34 147.795 1069.37 149.034C1075.51 150.573 1081.57 152.426 1087.51 154.587C1093.16 156.444 1098.5 159.125 1103.35 162.542C1107.91 165.753 1111.71 169.899 1114.52 174.701C1117.48 180.288 1118.94 186.546 1118.74 192.862C1119.15 201.257 1117.3 209.608 1113.37 217.05C1109.45 224.493 1103.59 230.756 1096.41 235.189C1089.49 239.508 1081.81 242.511 1073.79 244.045C1065.19 245.743 1056.45 246.597 1047.69 246.596C1038.82 246.6 1029.97 245.694 1021.29 243.894C1013.12 242.29 1005.3 239.24 998.208 234.889C991.454 230.69 985.774 224.986 981.614 218.229C977.194 211.53 974.762 203.725 974.6 195.713C968.528 213.687 959.515 226.634 947.22 234.476C933.636 242.788 917.904 246.962 901.964 246.484C890.556 246.774 879.199 244.875 868.513 240.892C859.029 237.251 850.475 231.561 843.47 224.232C836.464 216.794 831.061 208.008 827.593 198.415C823.785 187.824 821.896 176.644 822.013 165.395C821.924 154.331 823.866 143.343 827.744 132.974C831.33 123.334 836.86 114.526 843.994 107.092C851.129 99.6583 859.717 93.7548 869.229 89.7459C879.489 85.4476 890.53 83.3022 901.662 83.4427ZM900.456 115.413C894.58 115.209 888.737 116.392 883.408 118.865C879.442 120.767 875.918 123.472 873.061 126.806C870.204 130.139 868.076 134.029 866.815 138.227C865.792 141.547 865.147 144.97 864.891 148.433H934.587C933.359 139.391 929.624 130.867 923.801 123.818C918.772 118.214 910.99 115.413 900.456 115.413Z" fill="white"/>
<path fill-rule="evenodd" clip-rule="evenodd" d="M1495.44 83.1425C1507.45 82.8112 1519.35 85.386 1530.14 90.6466C1539.73 95.525 1548.05 102.567 1554.42 111.21C1560.88 120.036 1565.54 130.029 1568.15 140.629C1571.09 151.989 1572.16 163.749 1571.32 175.45H1458.78C1459.39 189.259 1462.93 199.279 1469.34 205.47C1475.75 211.661 1485.03 214.626 1497.1 214.626C1505.04 214.847 1512.84 212.59 1519.43 208.172C1524.65 205.035 1528.64 200.215 1530.74 194.513H1568.45C1562.42 213.124 1553.17 226.433 1540.7 234.438C1527.11 242.75 1511.38 246.924 1495.44 246.446C1484.1 246.61 1472.84 244.623 1462.25 240.592C1452.78 236.932 1444.23 231.244 1437.21 223.932C1430.23 216.482 1424.84 207.699 1421.37 198.115C1417.56 187.523 1415.67 176.344 1415.79 165.095C1415.7 154.031 1417.64 143.043 1421.52 132.674C1425.09 123.025 1430.62 114.209 1437.75 106.773C1444.89 99.3371 1453.48 93.4392 1463.01 89.4457C1473.27 85.1472 1484.31 83.0019 1495.44 83.1425ZM1494.42 115.413C1488.55 115.218 1482.71 116.4 1477.38 118.865C1473.41 120.767 1469.88 123.472 1467.03 126.806C1464.17 130.139 1462.04 134.029 1460.78 138.227C1459.78 141.554 1459.13 144.974 1458.82 148.433H1528.51C1527.31 139.398 1523.6 130.875 1517.8 123.818C1512.67 118.227 1504.91 115.413 1494.42 115.413Z" fill="white"/>
<path d="M1195.08 27.4828C1198.89 27.4829 1202.7 27.6104 1206.51 27.9292C1209.06 28.1205 1211.55 28.2795 1213.28 28.5027V60.7064C1210.1 60.292 1206.13 60.0679 1201.98 60.0678C1196.15 60.0679 1191.99 61.4402 1189.48 64.1821C1186.99 66.9241 1185.73 71.5474 1185.73 78.0513V87.4902H1225.88V87.487H1268.61V244.997H1225.88V116.441H1185.76V245.065H1143.03V116.472H1117.47V87.522H1143.03V75.3413C1143.03 61.3122 1147.35 49.8334 1155.97 40.9057C1164.6 31.9465 1177.64 27.4829 1195.08 27.4828Z" fill="white"/>
<path d="M812.489 28.3565V242.693H769.647V28.3565H812.489Z" fill="white"/>
<path d="M1320.13 87.495L1353.01 193.463H1353.62L1386.51 87.495H1429.05L1376.25 242.693H1328.58L1275.17 87.495H1320.13Z" fill="white"/>
<path d="M1247.23 25.5655C1260.07 25.5657 1270.46 36.0889 1270.47 49.0976C1270.46 62.1063 1260.07 72.628 1247.23 72.6282C1234.38 72.6278 1223.99 62.1061 1223.99 49.0976C1223.99 36.089 1234.38 25.5659 1247.23 25.5655Z" fill="white"/>
<path d="M95.2219 160.704C95.2219 186.454 73.9674 207.329 47.7486 207.329C21.5299 207.329 0.275391 186.454 0.275391 160.704C0.275391 134.953 21.5299 114.078 47.7486 114.078C73.9674 114.078 95.2219 134.953 95.2219 160.704Z" fill="white"/>
<path d="M230.156 188.385C230.156 221.159 203.588 247.727 170.814 247.727C138.041 247.727 111.473 221.159 111.473 188.385C111.473 155.612 138.041 129.044 170.814 129.044C203.588 129.044 230.156 155.612 230.156 188.385Z" fill="white"/>
<path d="M180.937 59.8211C180.937 92.5945 154.369 119.163 121.596 119.163C88.8223 119.163 62.2541 92.5945 62.2541 59.8211C62.2541 27.0476 88.8223 0.479492 121.596 0.479492C154.369 0.479492 180.937 27.0476 180.937 59.8211Z" fill="white"/>
<path d="M378.962 166.265C378.962 201.379 349.737 229.845 313.686 229.845C277.636 229.845 248.411 201.379 248.411 166.265C248.411 131.15 277.636 102.684 313.686 102.684C349.737 102.684 378.962 131.15 378.962 166.265Z" fill="white"/>
<path d="M259.062 89.2582C259.062 107.05 244.639 121.472 226.848 121.472C209.057 121.472 194.634 107.05 194.634 89.2582C194.634 71.467 209.057 57.0443 226.848 57.0443C244.639 57.0443 259.062 71.467 259.062 89.2582Z" fill="white"/>
</svg>
